<svg id="visual" xmlns="http://www.w3.org/2000/svg" xmlns:xlink="http://www.w3.org/1999/xlink" version="1.1" viewBox="0 52.03 1000 73.98"><path d="M0 61L20.8 59.3C41.7 57.7 83.3 54.3 125 55C166.7 55.7 208.3 60.3 250 60C291.7 59.7 333.3 54.3 375 52.7C416.7 51 458.3 53 500 55.3C541.7 57.7 583.3 60.3 625 63C666.7 65.7 708.3 68.3 750 67.7C791.7 67 833.3 63 875 61.3C916.7 59.7 958.3 60.3 979.2 60.7L1000 61L1000 126L979.2 126C958.3 126 916.7 126 875 126C833.3 126 791.7 126 750 126C708.3 126 666.7 126 625 126C583.3 126 541.7 126 500 126C458.3 126 416.7 126 375 126C333.3 126 291.7 126 250 126C208.3 126 166.7 126 125 126C83.3 126 41.7 126 20.8 126L0 126Z" fill="#2e271f" stroke-linecap="round" stroke-linejoin="miter"/></svg>